<?xml version="1.0" standalone="no"?>
<!DOCTYPE svg PUBLIC "-//W3C//DTD SVG 20010904//EN"
 "http://www.w3.org/TR/2001/REC-SVG-20010904/DTD/svg10.dtd">
<svg version="1.0" xmlns="http://www.w3.org/2000/svg"
 width="552.000000pt" height="552.000000pt" viewBox="0 0 552.000000 552.000000"
 preserveAspectRatio="xMidYMid meet">
<metadata>
Created by potrace 1.11, written by Peter Selinger 2001-2013
</metadata>
<g transform="translate(0.000000,552.000000) scale(0.100000,-0.100000)"
fill="#000000" stroke="none">
<path d="M2065 5513 c-613 -37 -1031 -117 -1273 -242 -133 -70 -297 -230 -413
-406 -191 -288 -295 -649 -329 -1150 -25 -362 -30 -739 -30 -2151 l0 -1501
233 -7 c1714 -49 3022 -64 3322 -38 349 30 567 62 774 113 308 76 459 162 632
362 146 168 250 354 324 580 144 440 166 810 172 2948 l4 1437 -168 6 c-92 4
-451 13 -798 21 -346 8 -819 19 -1050 25 -377 9 -1273 11 -1400 3z m276 -361
c158 -42 293 -116 404 -223 l61 -59 50 51 c150 154 361 245 594 256 96 4 130
2 203 -16 329 -79 522 -302 593 -686 17 -88 19 -155 19 -575 0 -457 -1 -478
-22 -552 -31 -109 -70 -185 -122 -241 -61 -66 -110 -89 -197 -95 l-72 -4 -5
618 c-4 501 -8 629 -19 669 -34 117 -92 191 -186 237 -64 32 -71 33 -182 32
-95 0 -125 -4 -172 -22 -108 -43 -196 -133 -244 -250 l-24 -57 0 -612 0 -613
-210 0 -210 0 0 588 c0 550 -1 592 -19 643 -30 89 -60 140 -117 199 -92 97
-202 136 -356 128 -106 -7 -176 -36 -236 -102 -99 -107 -112 -172 -112 -557 0
-163 -3 -431 -7 -597 l-6 -302 -57 0 c-43 0 -71 7 -118 31 -96 48 -159 138
-204 296 -23 76 -23 88 -23 578 0 484 1 503 23 604 31 138 71 240 132 333 106
161 278 275 481 318 70 15 273 4 360 -18z m-590 -2644 c1 -2 5 -282 9 -623 6
-598 7 -622 28 -685 62 -189 219 -282 424 -250 182 28 300 131 362 317 l26 78
0 583 0 582 210 0 210 0 2 -622 3 -623 34 -70 c46 -95 136 -184 214 -213 221
-83 430 -23 517 147 47 94 49 118 56 769 l7 615 68 -6 c159 -13 269 -129 325
-342 17 -64 19 -114 19 -570 0 -485 -1 -503 -23 -605 -61 -276 -194 -468 -398
-573 -135 -69 -236 -91 -394 -84 -146 6 -255 34 -379 96 -84 43 -220 145 -247
186 l-16 25 -73 -69 c-175 -166 -403 -249 -655 -238 -202 8 -348 73 -491 217
-73 73 -94 102 -138 191 -100 203 -111 288 -111 865 0 509 4 551 66 683 69
147 165 218 297 220 26 1 48 0 48 -1z"/>
</g>
</svg>
